# xmcd
#
# Track frame offsets:
#	150
#	16541
#	35541
#	54886
#	70584
#	93452
#	112342
#	128921
#	157584
#	177704
#	195325
#
# Disc length: 2889 seconds
#
# Revision: 1
# Processed by: cddbd v1.5.2PL0 Copyright (c) Steve Scherf et al.
# Submitted via: audiograbber 1.83.01
#
DISCID=840b470b
DTITLE=Tony Hudspeth - Back From The Cold
DYEAR=2012
DGENRE=Blues
TTITLE0=Have Fun
TTITLE1=My Turn
TTITLE2=Good Times
TTITLE3=2 Beers
TTITLE4=Back From The Cold
TTITLE5=Funky Attitude
TTITLE6=Wildman Boogie
TTITLE7=Try
TTITLE8=Do It Tonight
TTITLE9=Got It Wrong
TTITLE10=Sunny Days
EXTD=
EXTT0=
EXTT1=
EXTT2=
EXTT3=
EXTT4=
EXTT5=
EXTT6=
EXTT7=
EXTT8=
EXTT9=
EXTT10=
PLAYORDER=
